<svg width="22" height="22" viewBox="0 0 22 22" fill="none" xmlns="http://www.w3.org/2000/svg">
<path d="M19.0005 0H14.0005V1H12.0005V2H11.0005V4H10.0005V6H12.0005V5H14.0005V4H15.0005V3H17.0005V4H18.0005V5H19.0005V7H18.0005V8H17.0005V9H16.0005V10H15.0005V11H14.0005V12H10.0005V11H9.00049V12H8.00049V14H10.0005V15H15.0005V14H17.0005V13H18.0005V12H19.0005V11H20.0005V10H21.0005V8H22.0005V3H21.0005V2H20.0005V1H19.0005V0Z" fill="black"/>
<path d="M3.00049 22H8.00049V21H10.0005V20H11.0005V18H12.0005V16H10.0005V17H8.00049V18H7.00049V19H5.00049V18H4.00049V17H3.00049V15H4.00049V14H5.00049V13H6.00049V12H7.00049V11H8.00049V10H12.0005V11H13.0005V10H14.0005V8H12.0005V7H7.00049V8H5.00049V9H4.00049V10H3.00049V11H2.00049V12H1.00049V14H0.000488281V19H1.00049V20H2.00049V21H3.00049V22Z" fill="black"/>
</svg>
