<svg width="25" height="24" viewBox="0 0 25 24" fill="none" xmlns="http://www.w3.org/2000/svg">
<path fill-rule="evenodd" clip-rule="evenodd" d="M9.55566 0H15.5557V1H18.5557V2H19.5557V3H20.5557V4H21.5557V5H22.5557V6H23.5557V8V9H24.5557V11V12V13V15H23.5557V16V18H22.5557V19H21.5557V20H20.5557V21H19.5557V22H18.5557V23H15.5557V24H9.55566V23H6.55566V22H5.55566V21H4.55566V20H3.55566V19H2.55566V18H1.55566V16V15H0.555664V13V12V11V9H1.55566V8V6H2.55566V5H3.55566V4H4.55566V3H5.55566V2H6.55566V1H9.55566V0ZM6.55566 13V16H3.55566V15H2.55566V13H6.55566ZM8.55566 13H16.5557V16H8.55566V13ZM18.5557 13V16H21.5557V15H22.5557V13H18.5557ZM6.55566 8V11H2.55566V9H3.55566V8H6.55566ZM8.55566 11H16.5557V8H8.55566V11ZM22.5557 9V11H18.5557V8H21.5557V9H22.5557ZM20.5557 18H17.5557V19V20H16.5557V21H15.5557V22H17.5557V21H18.5557V20H19.5557V19H20.5557V18ZM15.5557 18H9.55566V19V20H10.5557V21H11.5557V22H13.5557V21H14.5557V20H15.5557V19V18ZM7.55566 18H4.55566V19H5.55566V20H6.55566V21H7.55566V22H9.55566V21H8.55566V20H7.55566V19V18ZM7.55566 6H4.55566V5H5.55566V4H6.55566V3H7.55566V2H9.55566V3H8.55566V4H7.55566V5V6ZM15.5557 6H9.55566V5V4H10.5557V3H11.5557V2H13.5557V3H14.5557V4H15.5557V5V6ZM20.5557 6H17.5557V5V4H16.5557V3H15.5557V2H17.5557V3H18.5557V4H19.5557V5H20.5557V6Z" fill="black"/>
</svg>
